<?xml version="1.0" encoding="utf-8"?>
<!-- Generator: Adobe Illustrator 21.0.0, SVG Export Plug-In . SVG Version: 6.00 Build 0)  -->
<svg version="1.1" id="Layer_1" xmlns="http://www.w3.org/2000/svg" xmlns:xlink="http://www.w3.org/1999/xlink" x="0px" y="0px"
	 viewBox="0 0 170 66" enable-background="new 0 0 170 66" xml:space="preserve">
<g>
	<path fill="#63BA8C" d="M30.5,37.9c-3.4,0-6.4,0.6-9.4,1.2c-1.7,0.4-3.3,0.9-5,1.3c-0.3,0.1-0.4,0.2-0.3,0.5
		c0.1,1.3,0.5,2.5,0.8,3.7c0.1,0.5,0.1,0.5-0.4,0.5c-0.8-0.1-1.2-0.6-1.5-1.3c-0.4-0.8-0.5-1.6-0.5-2.5c0-0.3-0.1-0.4-0.4-0.3
		c-1,0.3-1.9,0.6-2.9,1c-0.4,0.1-0.7,0-0.7-0.5c0-0.6,0-1.3,0.1-1.9c0.1-0.4,0.3-0.7,0.7-0.8c1-0.4,1.9-0.6,2.9-0.8
		c0.4-0.1,0.5-0.2,0.6-0.6c0.7-4.5,2.1-8.7,3.8-12.9c2-5.1,4.4-9.9,7.4-14.5c1-1.5,2.1-3.1,3.5-4.3c0.7-0.6,1.4-1.1,2.4-1.1
		c1.4,0.1,2.7,0.7,3.7,1.6c0.7,0.6,0.8,1.4,0.5,2.3c-0.4,1.5-1.1,2.8-1.9,4.1c-2.4,4-5.2,7.8-8.2,11.4c-1.2,1.4-2.2,2.8-3.4,4.3
		c-0.3,0.4-0.6,0.8-1,1.1c-0.1,0.1-0.3,0.3-0.5,0.2c-0.2-0.2,0-0.3,0.1-0.5c1.1-1.6,2.3-3.1,3.5-4.6c2.7-3.5,5.3-7,7.5-10.9
		c0.9-1.5,1.7-3.1,2-4.8c0.1-0.4,0.1-0.8,0-1.2c-0.1-0.7-0.6-1-1.2-0.7c-0.4,0.1-0.7,0.4-1,0.7c-0.7,0.6-1.2,1.4-1.7,2.1
		c-4.8,7.2-9,14.7-12.2,22.7c-0.6,1.5-1.1,3-1.5,4.5c-0.1,0.6-0.1,0.6,0.4,0.5c3.2-0.6,6.5-1.1,9.8-1.3c2.4-0.1,4.9-0.2,7.3,0.3
		c1.3,0.2,2.6,0.6,3.6,1.5c0.8,0.7,1.5,2.2,0.9,3.5c-0.3,0.7-0.6,1.3-1.1,1.9c-0.3,0.4-0.6,0.7-1.1,0.8c-0.1,0-0.3,0.1-0.3-0.1
		c-0.1-0.2,0.1-0.2,0.1-0.3c0.7-0.7,1.1-1.4,1.5-2.3c0.3-0.8,0.1-1.6-0.6-2.2c-0.8-0.7-1.9-0.9-2.9-1.1C32.8,38,31.5,37.9,30.5,37.9
		z"/>
	<path fill="#63BA8C" d="M58.8,21.1c2.1-0.1,4.2-0.1,6.2-0.2c0.2,0,0.4,0,0.6,0c0.1,0,0.3,0,0.3,0.2c0,0.1-0.1,0.2-0.2,0.2
		c-3.3,1.1-6.6,2.3-9.9,3.2c-0.2,0.1-0.3,0.2-0.4,0.4c-2,6.4-3.8,12.8-6.4,19c-1.4,3.3-2.9,6.5-5,9.3c-1.5,2.1-3.3,3.9-5.7,5
		c-2.2,1-4.5,1.3-6.7,0.4c-2.4-1-4-2.6-4.4-5.3C27,52.8,27,52.4,27,52c0-0.1,0-0.3,0.2-0.3c0.2,0,0.2,0.1,0.3,0.2
		c0.2,0.4,0.3,0.8,0.4,1.2c1.5,4.2,5.9,4.6,8.5,3.4c1.7-0.8,3-2,4.1-3.4c2.3-2.8,3.9-5.9,5.4-9.2c1.7-3.8,3-7.7,4.3-11.6
		c0.8-2.4,1.6-4.8,2.4-7.1c0.1-0.3,0.1-0.5-0.3-0.6c-1.2-0.4-2.1-1-2.5-2.3c-0.1-0.4-0.2-0.7-0.1-1.1c0-0.5,0.1-0.6,0.6-0.5
		c1,0.2,2.1,0.3,3.1,0.5c0.3,0.1,0.5,0,0.7-0.3c0.4-0.6,0.6-1.4,0.9-2.1c1-3.3,2.1-6.5,3.7-9.5c0.5-1,1.2-1.9,2.1-2.7
		c1.7-1.4,4.1-1.6,5.7-0.4c0.7,0.6,1.1,1.3,1.1,2.2c0,0.7-0.1,1.4-0.4,2c-0.3,0.6-1,1-1.7,0.9c-0.4,0-0.5-0.2-0.4-0.6
		c0.4-1.1,0.5-2.2,0.3-3.3c-0.1-0.7-0.6-1-1.3-0.7c-0.7,0.2-1.2,0.8-1.7,1.3c-1.2,1.4-2.1,3-2.8,4.7c-1,2.3-1.8,4.7-2.6,7.1
		c-0.3,0.8,0,1.1,0.9,1.1C58.2,21.1,58.5,21.1,58.8,21.1C58.8,21.1,58.8,21.1,58.8,21.1z"/>
	<path fill="#ffffff" d="M155.5,26.1c-2.8,0-5.6,0-8.4,0c-0.4,0-0.4,0.1-0.4,0.4c0.1,2,0.5,3.9,1.3,5.7c1.7,3.7,4.8,5.1,8.5,4.8
		c2.2-0.2,4-1.1,5.7-2.4c0.3-0.2,0.4-0.2,0.6,0.1c0.7,0.9,0.7,0.9-0.3,1.6c-3.4,2.4-7,3-10.9,1.7c-2.8-1-4.5-3.1-5.6-5.8
		c-1-2.6-1.2-5.4-1.1-8.1c0.1-2.4,0.6-4.7,1.7-6.8c1.4-2.7,3.4-4.5,6.4-5c4.5-0.8,8.9,1,10.6,6.5c0.7,2.3,0.8,4.7,0.7,7.2
		c0,0.3-0.2,0.3-0.4,0.3C161.1,26.1,158.3,26.1,155.5,26.1z M154.7,24.6c2.6,0,5.1,0,7.7,0c0.2,0,0.4,0.1,0.4-0.3
		c0-1.6,0-3.2-0.4-4.8c-0.4-1.7-1.2-3.3-2.6-4.5c-2.5-2.2-8.3-2.6-11.1,1.9c-1.4,2.2-1.8,4.7-2,7.3c0,0.3,0.1,0.4,0.4,0.4
		C149.6,24.6,152.2,24.6,154.7,24.6z"/>
	<path fill="#ffffff" d="M96.7,28.9c0,4.8-3,8.5-7.8,9.4c-4.8,0.9-9.1-0.4-12.8-3.6c-0.2-0.1-0.2-0.2,0-0.4c0.2-0.2,0.5-0.5,0.7-0.7
		c0.2-0.2,0.3-0.2,0.5,0c1.5,1.3,3.1,2.4,5,2.9c2.7,0.7,5.4,0.8,8-0.3c2.9-1.2,4.4-3.5,4.6-6.6c0.1-1,0-2-0.3-2.9
		c-0.4-1.7-1.5-2.9-2.9-3.7c-1.6-1-3.3-1.6-5.1-2.1c-1.9-0.6-3.9-1.3-5.6-2.3c-1.8-1-3.1-2.4-3.6-4.5c-1-4.5,1.3-8.5,5.8-9.6
		c4.5-1.1,8.6-0.3,12.1,2.9c0.2,0.2,0.2,0.3,0,0.5c-0.3,0.3-0.5,0.8-0.9,0.8c-0.3,0-0.6-0.4-0.9-0.7c-3.3-2.6-7.1-3.1-10.9-1.6
		c-3.9,1.5-4.3,5.5-3.3,8.1c0.4,1.1,1.3,1.9,2.3,2.6c1.4,0.9,3,1.5,4.6,2c1.8,0.6,3.6,1.1,5.3,2c0.9,0.4,1.7,1,2.5,1.6
		c1.7,1.5,2.4,3.4,2.5,5.5C96.7,28.4,96.7,28.7,96.7,28.9z"/>
	<path fill="#63BA8C" d="M64.1,40.6c-0.7,0-1.4-0.1-2-0.3c-1.8-0.5-2.8-1.9-3-3.7c-0.2-1.7,0.2-3.4,0.8-4.9c1.3-3.2,3.1-6,5.5-8.4
		c1-1,2.2-1.9,3.7-2.2c1.1-0.3,2.2-0.2,3.2,0.4c1.7,1,2.2,2.7,1.4,4.5C73,27.2,72,28.2,70.9,29c-1.4,1.1-2.9,1.9-4.7,2.2
		c-0.3,0-0.6,0-0.9,0.1c-0.2,0-0.4,0-0.4-0.2c0-0.2,0.1-0.3,0.3-0.4c0.7-0.2,1.4-0.5,2.1-0.8c1.4-0.6,2.6-1.4,3.6-2.6
		c0.9-1.1,1.4-2.5,1.3-3.9c0-0.7-0.3-0.9-1-0.6c-0.8,0.3-1.5,0.9-2.2,1.5c-3.1,2.7-5.5,5.9-6.9,9.8c-0.4,1-0.5,2-0.5,3.1
		c0.1,1.6,1,2.4,2.6,2.1c1.4-0.3,2.6-1,3.7-1.8c1.3-1,2.4-2.2,3.5-3.4c1.1-1.1,2.2-2.3,3.3-3.5c0.1-0.2,0.3-0.3,0.5-0.2
		c0.2,0.1,0.1,0.4,0.1,0.6c0,0.1-0.1,0.2-0.1,0.3c-1.7,2.4-3.4,4.7-5.5,6.7c-0.9,0.9-1.9,1.6-3.1,2.2C65.8,40.4,64.9,40.7,64.1,40.6
		z"/>
	<path fill="#ffffff" d="M132.9,12.5c-1.2,3.3-2.3,6.6-3.4,9.8c-2,5.7-4,11.3-6,17c-0.3,0.7-0.6,1.4-0.9,2.1c-1.4,3.1-3.7,5-6.9,6
		c-0.3,0.1-0.7,0.2-1,0.3c-0.2,0.1-0.2,0-0.3-0.2c0-0.4-0.2-0.8-0.1-1c0.1-0.3,0.6-0.3,0.9-0.4c2.9-0.9,4.9-2.7,6.1-5.6
		c0.3-0.8,0.7-1.6,1-2.6c-0.7,0.2-0.8-0.2-0.9-0.6c-2.9-8.2-5.8-16.4-8.7-24.6c0-0.1-0.1-0.2-0.1-0.4c0.6,0,1.1,0,1.6,0
		c0.3,0,0.3,0.2,0.3,0.3c0.9,2.7,1.8,5.4,2.8,8c1.8,5.2,3.5,10.3,5.3,15.5c0,0.1,0,0.2,0.2,0.3c0.6-1.6,1.1-3.3,1.6-4.9
		c2.1-6.3,4.3-12.6,6.4-19c0.1-0.3,0.2-0.4,0.5-0.4C131.9,12.5,132.4,12.5,132.9,12.5z"/>
	<path fill="#ffffff" d="M111.8,12.5c-0.1,0.4-0.1,0.7-0.2,1.1c0,0.3-0.1,0.4-0.4,0.4c-2,0-3.9,0-5.9,0c-0.3,0-0.5,0-0.5,0.4
		c0,5.9,0,11.8,0,17.7c0,0.6,0,1.2,0.2,1.9c0.4,2,1.7,3,3.7,3.1c1.5,0.1,2.9-0.3,4.3-1c0.3-0.2,0.4-0.1,0.6,0.2c0,0,0,0.1,0.1,0.1
		c0.5,0.9,0.5,0.9-0.4,1.3c-1.8,0.9-3.6,1.2-5.6,0.9c-2.3-0.4-3.9-2-4.3-4.4c-0.1-0.7-0.2-1.3-0.2-2c0-5.9,0-11.8,0-17.7
		c0-0.4-0.1-0.5-0.5-0.5c-1.1,0-2.2,0-3.4,0c-0.3,0-0.4-0.1-0.3-0.4c0-0.3-0.1-0.8,0.1-1c0.2-0.2,0.7-0.1,1-0.1c0.9,0,1.8,0,2.7,0
		c0.4,0,0.4-0.1,0.4-0.4c0-1.9,0-3.7,0-5.6c0-0.3,0.1-0.4,0.4-0.4c0.2,0,0.3,0,0.5,0c0.8-0.1,0.8-0.1,0.8,0.8c0,1.8,0,3.6,0,5.3
		c0,0.3,0.1,0.3,0.3,0.3c2,0,4.1,0,6.1,0C111.4,12.5,111.6,12.5,111.8,12.5z"/>
	<path fill="#ffffff" d="M138.1,18.4c0,5.2,0,10.4,0,15.6c0,0.3,0,0.6,0,0.9c0.2,1.6,1.2,2.3,2.8,2.1c0.3-0.1,0.7-0.1,1-0.3
		c0.3-0.1,0.4,0,0.4,0.2c0,0.1,0,0.1,0.1,0.2c0.3,0.9,0.3,0.9-0.6,1.2c-0.8,0.2-1.6,0.3-2.4,0.1c-1.7-0.3-2.8-1.4-3-3.1
		c-0.1-0.4-0.1-0.9-0.1-1.3c0-10.6,0-21.1,0-31.7c0-0.4,0.1-0.5,0.5-0.5c0.3,0,0.6,0,0.9-0.1c0.3-0.1,0.4,0,0.4,0.3
		c0,2.8,0,5.7,0,8.5C138.1,13.2,138.1,15.8,138.1,18.4z"/>
	<path fill="#63BA8C" d="M39.1,37.3c0-2.3,0.6-4.6,1.2-6.9c0.6-2.2,1.5-4.2,2.3-6.3c0.3-0.6,0.5-1.3,0.8-1.9
		c0.3-0.5,0.7-0.8,1.3-0.8c0.6,0,1.1,0,1.7,0.2c0.2,0.1,0.4,0.2,0.6,0.3c0.2,0.2,0.3,0.4,0.1,0.6c-2.3,4.1-3.8,8.5-5,13
		c-0.3,1.1-0.5,2.2-0.2,3.4c0.2,0.9,0.6,1.1,1.4,0.7c0.7-0.4,1.4-1,2-1.5c0.1-0.1,0.2-0.4,0.5-0.2c0.2,0.2,0.1,0.4,0,0.6
		c-0.2,0.3-0.4,0.5-0.6,0.7c-0.8,0.6-1.6,1.1-2.5,1.4c-1.8,0.7-3.1-0.1-3.4-2C39.1,38.2,39.1,37.7,39.1,37.3z"/>
	<path fill="#ffffff" d="M124.7,56.6c-1.1-0.6-1.5-1.6-1.3-2.7c0.2-1.3,1.3-2.2,2.7-2.3c0.4,0,0.8,0,1.1,0c0.9,0,1.8-0.1,2.7-0.6
		c0.4,1.1,0.5,0.9-0.7,1.1c-0.4,0.1-0.7,0.1-1.1,0.1c0,0,0,0.1,0,0.1c1.1,0.6,1.4,1.7,1.1,2.9c-0.3,1.1-1.2,1.8-2.5,1.9
		c-0.4,0-0.7,0-1.1-0.1c-0.5-0.1-0.8,0.1-0.9,0.6c-0.1,0.4,0.1,0.8,0.5,1c0.3,0.1,0.6,0.1,1,0.1c0.7,0,1.4-0.1,2,0.1
		c1,0.2,1.7,0.9,1.7,1.9c0.1,1.1-0.4,1.9-1.5,2.2c-1.3,0.5-2.7,0.5-4.1,0.1c-0.9-0.3-1.3-0.9-1.4-1.8c0-0.2,0.1-0.3,0.3-0.3
		c0.4,0,0.6,0,0.6,0.5c0,0.5,0.4,0.8,0.9,1c1.1,0.3,2.2,0.3,3.2,0c0.7-0.2,1.1-0.8,1-1.5c0-0.6-0.5-1-1.2-1.2
		c-0.6-0.1-1.3-0.1-1.9-0.1c-0.4,0-0.7,0-1-0.1c-1.1-0.4-1.4-1.5-0.6-2.4C124.4,56.9,124.5,56.8,124.7,56.6z M126.3,56.4
		c1.3,0,2.1-0.7,2.1-2c0-1.3-0.7-2-2.1-2.1c-1.3,0-2.1,0.8-2.1,2C124.3,55.6,125,56.4,126.3,56.4z"/>
	<path fill="#ffffff" d="M81.8,58.8c-0.8,1.1-1.8,1.5-3.1,1.2c-1.1-0.2-1.7-0.9-1.9-1.9c-0.2-1.3,0.3-2.2,1.3-2.7
		c0.6-0.3,1.2-0.4,1.8-0.4c0.4,0,0.7,0,1.1,0c0.7,0,0.7,0,0.6-0.7c0-0.1,0-0.2,0-0.3c0-1-0.6-1.6-1.6-1.6c-0.7,0-1.5,0.1-2.2,0.4
		c-0.3,0.1-0.3,0-0.4-0.2c-0.1-0.2-0.2-0.4,0.2-0.5c0.9-0.3,1.7-0.5,2.6-0.4c1.5,0.1,2.3,0.9,2.3,2.4c0,1.3,0,2.7,0,4
		c0,0.5,0,1.1,0.6,1.4c0.2,0.1,0,0.4-0.1,0.6c0,0.2-0.2,0.1-0.3,0C82.3,59.9,82.1,59.6,81.8,58.8z M81.7,56.9c0-0.3,0-0.6,0-0.9
		c0-0.2-0.1-0.3-0.3-0.3c-0.4,0-0.8,0-1.2,0c-0.5,0-1,0.1-1.5,0.3c-0.7,0.4-1,1.1-0.9,1.9c0.1,0.7,0.5,1.2,1.2,1.4
		c0.8,0.2,1.6,0,2.2-0.7C81.8,58.2,81.8,57.6,81.7,56.9z"/>
	<path fill="#ffffff" d="M119.9,58.8c-0.8,1.1-1.9,1.5-3.1,1.3c-1.1-0.2-1.7-0.9-1.9-1.9c-0.2-1.3,0.3-2.2,1.3-2.7
		c0.6-0.3,1.2-0.4,1.8-0.4c0.3,0,0.6,0,0.9,0c0.8,0,0.8,0,0.8-0.8c0-1.3-0.6-1.8-1.8-1.8c-0.7,0-1.3,0.1-1.9,0.4
		c-0.3,0.1-0.4,0-0.4-0.2c-0.1-0.3-0.1-0.4,0.2-0.5c0.8-0.3,1.6-0.4,2.5-0.4c1.5,0.1,2.4,0.9,2.4,2.4c0,1.3,0,2.6,0,3.9
		c0,0.6,0,1.1,0.6,1.5c0.2,0.1,0,0.4-0.1,0.6c-0.1,0.2-0.2,0.1-0.3,0C120.3,59.9,120,59.5,119.9,58.8z M119.8,56.9
		c0-0.4,0.2-0.9-0.1-1.1c-0.2-0.2-0.7-0.1-1.1-0.1c-0.2,0-0.4,0-0.6,0c-0.5,0-0.9,0.1-1.3,0.3c-0.7,0.4-1,1-0.9,1.9
		c0.1,0.7,0.5,1.3,1.2,1.4c0.8,0.2,1.6,0,2.2-0.6C119.8,58.2,119.8,57.6,119.8,56.9z"/>
	<path fill="#ffffff" d="M135,56.2c-0.8,0-1.6,0-2.5,0c-0.2,0-0.3,0.1-0.3,0.3c0.1,0.2,0.1,0.5,0.1,0.8c0.4,1.8,1.9,2.6,3.6,1.9
		c0.3-0.1,0.5-0.2,0.8-0.4c0.2-0.1,0.3-0.1,0.4,0.1c0.3,0.3,0.2,0.4-0.1,0.6c-1,0.7-2.1,0.9-3.2,0.6c-1.1-0.3-1.9-1-2.2-2.1
		c-0.5-1.5-0.5-3,0.1-4.4c0.7-1.6,2.3-2.3,3.9-1.8c1.3,0.4,1.8,1.4,2,2.6c0.1,0.5,0.1,0.9,0.1,1.4c0,0.3-0.1,0.4-0.4,0.4
		C136.6,56.2,135.8,56.2,135,56.2z M134.5,55.5c0.7,0,1.4,0,2,0c0.2,0,0.3-0.1,0.3-0.3c0-0.5-0.1-1-0.2-1.4
		c-0.3-0.8-0.9-1.3-1.7-1.4c-0.9-0.1-1.7,0.2-2.1,1.1c-0.3,0.5-0.4,1.1-0.5,1.7c0,0.3,0.1,0.3,0.3,0.3
		C133.2,55.5,133.9,55.5,134.5,55.5z"/>
	<path fill="#ffffff" d="M105.8,56.2c-0.8,0-1.6,0-2.5,0c-0.2,0-0.3,0-0.3,0.3c0.1,0.2,0.1,0.5,0.1,0.8c0.4,1.8,1.9,2.6,3.6,1.9
		c0.3-0.1,0.5-0.2,0.8-0.4c0.2-0.1,0.3-0.1,0.4,0.1c0.2,0.3,0.2,0.4-0.1,0.6c-1,0.7-2.1,0.9-3.2,0.6c-1.1-0.2-1.8-0.9-2.2-2
		c-0.6-1.5-0.5-3.1,0.1-4.5c0.7-1.5,2.2-2.2,3.8-1.7c1.3,0.4,1.8,1.4,2.1,2.6c0.1,0.5,0.1,1,0.1,1.5c0,0.3-0.1,0.3-0.3,0.3
		C107.4,56.2,106.6,56.2,105.8,56.2z M105.3,55.5c0.7,0,1.4,0,2,0c0.2,0,0.3,0,0.3-0.3c0-0.5-0.1-1.1-0.3-1.6
		c-0.3-0.8-0.9-1.2-1.7-1.3c-0.9-0.1-1.6,0.2-2.1,1c-0.4,0.6-0.5,1.3-0.6,1.9c0,0.3,0.1,0.2,0.3,0.2C104,55.5,104.7,55.5,105.3,55.5
		z"/>
	<path fill="#ffffff" d="M72.2,56.2c-0.8,0-1.6,0-2.5,0c-0.2,0-0.3,0-0.3,0.3c0.1,0.3,0.1,0.5,0.1,0.8c0.4,1.8,1.9,2.5,3.6,1.9
		c0.3-0.1,0.5-0.2,0.7-0.4c0.2-0.2,0.4-0.2,0.5,0.1c0.2,0.2,0.2,0.3-0.1,0.5c-1,0.7-2.1,0.9-3.3,0.7c-1.1-0.2-1.9-1-2.2-2
		c-0.5-1.5-0.5-3,0.1-4.5c0.7-1.6,2.2-2.3,3.9-1.8c1.3,0.4,1.8,1.4,2,2.6c0.1,0.5,0.1,1,0.1,1.6c0,0.2-0.1,0.3-0.3,0.3
		C73.8,56.2,73,56.2,72.2,56.2z M71.7,55.5c0.7,0,1.4,0,2,0c0.2,0,0.3,0,0.3-0.2c0-0.5-0.1-1.1-0.3-1.6c-0.3-0.8-0.9-1.2-1.7-1.3
		c-0.9-0.1-1.6,0.2-2.1,1c-0.3,0.5-0.4,1.2-0.5,1.8c0,0.3,0.1,0.4,0.3,0.3C70.4,55.5,71,55.5,71.7,55.5z"/>
	<path fill="#ffffff" d="M155.7,51.8c0.9-0.1,0.9-0.1,1.2,0.7c0.7,2.1,1.4,4.2,2.1,6.3c0,0.1,0,0.1,0.1,0.3c0.1-0.2,0.1-0.3,0.2-0.4
		c0.7-2.1,1.4-4.3,2.1-6.4c0.1-0.5,0.3-0.7,0.8-0.6c0.1,0,0.2,0,0.4,0c-0.1,0.4-0.2,0.7-0.3,1c-0.8,2.5-1.7,5-2.5,7.4
		c-0.5,1.5-1.4,2.5-2.9,2.9c-0.1,0-0.3,0.2-0.3-0.1c0-0.2-0.3-0.5,0.2-0.6c1.2-0.3,1.9-1.1,2.2-2.2c0-0.1,0.2-0.3-0.1-0.3
		c-0.1,0-0.1-0.1-0.2-0.2c-0.9-2.6-1.8-5.2-2.7-7.8C155.7,51.9,155.7,51.9,155.7,51.8z"/>
	<path fill="#ffffff" d="M55.2,54.4c0,1,0.1,1.9,0.4,2.7c0.8,2.2,3.1,2.9,5,1.5c0.4-0.3,0.4,0,0.6,0.2c0.3,0.3,0.1,0.4-0.1,0.5
		c-1.9,1.5-5,1-6.1-1.2c-1.2-2.3-1.2-4.7,0-6.9c1.1-2.2,4-2.8,6-1.3c0.1,0.1,0.4,0.2,0.1,0.4c-0.2,0.1-0.2,0.6-0.6,0.3
		c-1.9-1.3-4.2-0.6-5,1.6C55.3,52.9,55.2,53.7,55.2,54.4z"/>
	<path fill="#ffffff" d="M141.2,53.1c0.2-0.1,0.3-0.2,0.4-0.3c0.6-0.7,1.4-1.1,2.3-1.1c1.4,0,2.3,0.7,2.3,2.1c0.1,2,0,4,0,6
		c0,0.2,0,0.2-0.2,0.2c-0.1,0-0.2,0-0.3,0c-0.3,0-0.4-0.1-0.4-0.4c0-1.7,0-3.4,0-5.1c0-0.2,0-0.3,0-0.5c-0.1-1.3-0.8-1.9-2.1-1.6
		c-0.9,0.2-1.4,0.8-1.9,1.5c-0.1,0.1,0,0.3,0,0.4c0,1.7,0,3.5,0,5.2c0,0.4-0.2,0.4-0.5,0.4c-0.3,0-0.5,0-0.5-0.4c0-2.4,0-4.9,0-7.3
		c0-0.2,0-0.4,0.3-0.4c0.3,0,0.6,0,0.5,0.4C141.2,52.5,141.2,52.8,141.2,53.1z"/>
	<path fill="#ffffff" d="M94.2,51.8c1-0.1,1-0.1,1.3,0.8c0.7,2,1.4,4,2,6c0,0.1,0.1,0.2,0.1,0.4c0.1-0.1,0.2-0.3,0.2-0.4
		c0.7-2.1,1.4-4.2,2.1-6.3c0.1-0.4,0.3-0.6,0.7-0.5c0.1,0,0.3,0,0.4,0c-0.5,1.3-0.9,2.7-1.4,4c-0.4,1.3-0.9,2.5-1.3,3.8
		c-0.1,0.3-0.2,0.4-0.6,0.4c-0.7,0-0.7,0-1-0.7c-0.9-2.4-1.7-4.9-2.6-7.3C94.2,51.9,94.2,51.9,94.2,51.8z"/>
	<path fill="#ffffff" d="M89.1,51.8c-0.1,0.7-0.1,0.7-0.8,0.8c-0.4,0-1-0.1-1.2,0.1c-0.3,0.2-0.1,0.8-0.1,1.2c0,1.3,0,2.6,0,3.9
		c0,1.5,0.8,2,2.1,1.4c0.2-0.1,0.7,0.2,0.6,0.4c0,0.1-0.1,0.1-0.2,0.2c-0.7,0.4-1.5,0.5-2.3,0.3c-0.7-0.2-1-0.7-1.2-1.4
		c-0.1-0.4-0.1-0.9-0.1-1.4c0-1.4,0-2.9,0-4.3c0-0.3-0.1-0.4-0.4-0.4c-0.2,0-0.4,0-0.6,0c-0.3,0-0.4-0.1-0.4-0.4
		c0-0.3,0.1-0.4,0.4-0.3c0,0,0,0,0,0c1,0,1,0,1-1c0-0.2,0-0.5,0-0.7c0-0.2,0.1-0.3,0.3-0.3c0.6-0.1,0.6-0.1,0.6,0.5
		c0,0.4,0,0.8,0,1.1c0,0.3,0.1,0.3,0.3,0.3C87.9,51.8,88.5,51.8,89.1,51.8z"/>
	<path fill="#ffffff" d="M148.9,56c0-1,0.2-1.9,0.6-2.7c1-1.7,3.4-2.2,4.9-1c0.2,0.1,0.3,0.2,0.1,0.4c-0.1,0.1-0.1,0.5-0.5,0.3
		c-1.9-1.1-3.6-0.4-4,1.7c-0.2,0.9-0.2,1.8,0.1,2.7c0.5,1.8,2.2,2.5,3.9,1.5c0.1-0.1,0.2-0.3,0.4-0.2c0.1,0.1,0.3,0.3,0.3,0.5
		c0.1,0.1-0.1,0.2-0.2,0.3c-2,1.5-4.6,0.6-5.3-1.8C149,57.1,149,56.5,148.9,56z"/>
	<path fill="#63BA8C" d="M50.7,12c0.1,0.4-0.1,0.8-0.1,1.2c-0.2,1.2-0.5,2.4-1.1,3.4c-0.9,1.4-2.6,1.8-3.9,0.7
		c-0.1-0.1-0.3-0.2,0-0.3c1.9-1.4,3.5-3.2,5-5c0-0.1,0.1-0.1,0.1-0.2C50.6,12,50.6,12,50.7,12z"/>
	<path fill="#ffffff" d="M64.2,53.4c0.2-0.3,0.3-0.6,0.5-0.8c0.5-0.7,1.5-1.1,2.4-0.9c0.2,0,0.3,0.1,0.2,0.3
		c-0.1,0.2,0.1,0.6-0.3,0.6c-1.3-0.1-1.9,0.3-2.4,1.5c-0.2,0.5-0.3,1-0.3,1.6c0,1.3,0,2.7,0,4c0,0.2,0,0.4-0.3,0.4
		c-0.6,0-0.6,0-0.6-0.6c0-2.4,0-4.8,0-7.2c0-0.2-0.1-0.4,0.3-0.4c0.2,0,0.6-0.1,0.5,0.4c0,0.4,0,0.8,0,1.2
		C64.2,53.4,64.2,53.4,64.2,53.4z"/>
	<path fill="#ffffff" d="M91.5,55.9c0-1.2,0-2.5,0-3.7c0-0.2,0-0.4,0.3-0.4c0.6,0,0.6,0,0.6,0.6c0,2.4,0,4.8,0,7.1
		c0,0.4-0.2,0.4-0.5,0.4c-0.4,0-0.5-0.1-0.5-0.5C91.5,58.3,91.5,57.1,91.5,55.9z"/>
	<path fill="#ffffff" d="M92,48.2c0.4,0,0.7,0.3,0.7,0.6c0,0.4-0.3,0.7-0.7,0.7c-0.4,0-0.7-0.3-0.7-0.6C91.3,48.5,91.6,48.2,92,48.2
		z"/>

</g>
</svg>
